<svg width="64" height="64" viewBox="0 0 64 64" fill="none" xmlns="http://www.w3.org/2000/svg">
<path d="M37.3333 5.33334H16C14.5855 5.33334 13.229 5.89525 12.2288 6.89544C11.2286 7.89563 10.6667 9.25219 10.6667 10.6667V53.3333C10.6667 56.2933 13.04 58.6667 16 58.6667H48C50.96 58.6667 53.3333 56.2933 53.3333 53.3333V21.3333L37.3333 5.33334ZM48 53.3333H16V10.6667H34.6667V24H48V53.3333ZM25.44 41.7333L31.0133 47.3067L27.6 50.6667L18.6667 41.7333L27.6 32.8L31.0133 36.16L25.44 41.7333ZM45.3333 41.7333L36.4 50.6667L33.0133 47.3067L38.5867 41.7333L33.0133 36.16L36.4 32.8L45.3333 41.7333Z" fill="#1DD3B0"/>
</svg>
