<svg width="56" height="56" viewBox="0 0 56 56" fill="none" xmlns="http://www.w3.org/2000/svg">
<circle cx="28" cy="28" r="28" fill="#17487D"/>
<path d="M16.2227 37.4375C16.2227 37.8359 15.9414 38.0352 15.3789 38.0352C14.957 38.0352 14.4531 37.8359 13.8672 37.4375C13.5859 36.8047 13.4453 35.293 13.4453 32.9023C13.4453 30.5117 13.4688 28.543 13.5156 26.9961C13.5625 25.4258 13.6094 23.9844 13.6562 22.6719C13.7969 19.8125 13.8672 18.3008 13.8672 18.1367C14.5469 17.7383 15.1094 17.5391 15.5547 17.5391C16 17.5391 16.2227 17.7383 16.2227 18.1367V37.4375ZM36.332 18.4883C34.8086 16.9883 33.1211 16.2383 31.2695 16.2383C29.5117 16.2383 27.8242 16.9062 26.207 18.2422C24.168 19.9297 22.7617 22.1094 21.9883 24.7812C21.707 25.7422 21.5664 26.5391 21.5664 27.1719C21.5664 27.8047 21.5898 28.2969 21.6367 28.6484C21.6367 30.9688 22.4219 32.75 23.9922 33.9922C25.4688 35.1406 27.3555 35.7148 29.6523 35.7148C32.793 35.457 35.8047 34.25 38.6875 32.0938C39.4844 31.4844 40.3281 30.8984 41.2188 30.3359C41.5469 30.3359 41.875 30.3828 42.2031 30.4766C42.5547 30.5703 42.7305 30.8398 42.7305 31.2852C40.4102 33.3008 38.4531 34.7539 36.8594 35.6445C33.9062 37.2383 31.2344 38.0352 28.8438 38.0352C28.6797 38.0352 28.5273 38.0352 28.3867 38.0352C25.7852 38.0352 23.5586 37.2266 21.707 35.6094C19.7383 33.8984 18.7539 31.7656 18.7539 29.2109C18.7539 27.2891 19.0938 25.4492 19.7734 23.6914C20.4766 21.9336 21.4258 20.3867 22.6211 19.0508C23.8398 17.6914 25.2695 16.6133 26.9102 15.8164C28.5742 15.0195 30.3555 14.6211 32.2539 14.6211C33.8711 14.6211 34.9258 14.8438 35.418 15.2891C36.0273 15.8281 36.332 16.8945 36.332 18.4883Z" fill="#F5F5F5"/>
</svg>
